<svg id="coding_1_" data-name="coding (1)" xmlns="http://www.w3.org/2000/svg" width="73.001" height="73.001" viewBox="0 0 73.001 73.001">
  <path id="Path_137163" data-name="Path 137163" d="M6.637,0H66.364A6.637,6.637,0,0,1,73,6.637V66.364A6.637,6.637,0,0,1,66.364,73H6.637A6.637,6.637,0,0,1,0,66.364V6.637A6.637,6.637,0,0,1,6.637,0Z" fill="#f0eaf9"/>
  <path id="Path_137165" data-name="Path 137165" d="M6.637,0H66.365A6.637,6.637,0,0,1,73,6.637h0v9.955H0V6.637A6.637,6.637,0,0,1,6.637,0Z" fill="#2375d6"/>
  <path id="Path_137167" data-name="Path 137167" d="M108.326,149.337h46.455A1.659,1.659,0,0,1,156.441,151h0a1.659,1.659,0,0,1-1.659,1.659H108.326A1.659,1.659,0,0,1,106.667,151h0A1.659,1.659,0,0,1,108.326,149.337Z" transform="translate(-90.076 -126.109)" fill="#c4bfd7"/>
  <path id="Path_137168" data-name="Path 137168" d="M108.326,192h16.591a1.659,1.659,0,0,1,1.659,1.659h0a1.659,1.659,0,0,1-1.659,1.659H108.326a1.659,1.659,0,0,1-1.659-1.659h0A1.659,1.659,0,0,1,108.326,192Z" transform="translate(-90.076 -162.133)" fill="#c4bfd7"/>
  <path id="Path_137169" data-name="Path 137169" d="M108.326,234.667h16.591a1.659,1.659,0,0,1,1.659,1.659h0a1.659,1.659,0,0,1-1.659,1.659H108.326a1.659,1.659,0,0,1-1.659-1.659h0A1.659,1.659,0,0,1,108.326,234.667Z" transform="translate(-90.076 -198.166)" fill="#c4bfd7"/>
  <g id="Group_24011" data-name="Group 24011" transform="translate(16.591 43.138)">
    <path id="Path_137170" data-name="Path 137170" d="M108.326,320h6.636a1.659,1.659,0,0,1,1.659,1.659h0a1.659,1.659,0,0,1-1.659,1.659h-6.636a1.659,1.659,0,0,1-1.659-1.659h0A1.659,1.659,0,0,1,108.326,320Z" transform="translate(-106.667 -313.362)" fill="#c4bfd7"/>
    <path id="Path_137171" data-name="Path 137171" d="M108.326,277.337h6.636A1.659,1.659,0,0,1,116.622,279h0a1.659,1.659,0,0,1-1.659,1.659h-6.636A1.659,1.659,0,0,1,106.667,279h0A1.659,1.659,0,0,1,108.326,277.337Z" transform="translate(-106.667 -277.337)" fill="#c4bfd7"/>
  </g>
  <g id="Group_24012" data-name="Group 24012" transform="translate(6.637 23.228)">
    <path id="Path_137172" data-name="Path 137172" d="M44.326,405.337h3.318A1.659,1.659,0,0,1,49.3,407h0a1.659,1.659,0,0,1-1.659,1.659H44.326A1.659,1.659,0,0,1,42.667,407h0A1.659,1.659,0,0,1,44.326,405.337Z" transform="translate(-42.667 -365.518)" fill="#c4bfd7"/>
    <path id="Path_137173" data-name="Path 137173" d="M44.326,362.667h3.318a1.659,1.659,0,0,1,1.659,1.659h0a1.659,1.659,0,0,1-1.659,1.659H44.326a1.659,1.659,0,0,1-1.659-1.659h0A1.659,1.659,0,0,1,44.326,362.667Z" transform="translate(-42.667 -329.485)" fill="#c4bfd7"/>
    <path id="Path_137174" data-name="Path 137174" d="M44.326,277.337h3.318A1.659,1.659,0,0,1,49.3,279h0a1.659,1.659,0,0,1-1.659,1.659H44.326A1.659,1.659,0,0,1,42.667,279h0A1.659,1.659,0,0,1,44.326,277.337Z" transform="translate(-42.667 -257.428)" fill="#c4bfd7"/>
    <path id="Path_137175" data-name="Path 137175" d="M44.326,320h3.318a1.659,1.659,0,0,1,1.659,1.659h0a1.659,1.659,0,0,1-1.659,1.659H44.326a1.659,1.659,0,0,1-1.659-1.659h0A1.659,1.659,0,0,1,44.326,320Z" transform="translate(-42.667 -293.452)" fill="#c4bfd7"/>
    <path id="Path_137176" data-name="Path 137176" d="M44.326,234.667h3.318a1.659,1.659,0,0,1,1.659,1.659h0a1.659,1.659,0,0,1-1.659,1.659H44.326a1.659,1.659,0,0,1-1.659-1.659h0A1.659,1.659,0,0,1,44.326,234.667Z" transform="translate(-42.667 -221.395)" fill="#c4bfd7"/>
    <path id="Path_137177" data-name="Path 137177" d="M44.326,192h3.318a1.659,1.659,0,0,1,1.659,1.659h0a1.659,1.659,0,0,1-1.659,1.659H44.326a1.659,1.659,0,0,1-1.659-1.659h0A1.659,1.659,0,0,1,44.326,192Z" transform="translate(-42.667 -185.362)" fill="#c4bfd7"/>
    <path id="Path_137178" data-name="Path 137178" d="M44.326,149.337h3.318A1.659,1.659,0,0,1,49.3,151h0a1.659,1.659,0,0,1-1.659,1.659H44.326A1.659,1.659,0,0,1,42.667,151h0A1.659,1.659,0,0,1,44.326,149.337Z" transform="translate(-42.667 -149.337)" fill="#c4bfd7"/>
  </g>
  <path id="Path_137179" data-name="Path 137179" d="M108.326,405.337h3.318A1.659,1.659,0,0,1,113.3,407h0a1.659,1.659,0,0,1-1.659,1.659h-3.318A1.659,1.659,0,0,1,106.667,407h0A1.659,1.659,0,0,1,108.326,405.337Z" transform="translate(-90.076 -342.29)" fill="#c4bfd7"/>
  <g id="Group_24013" data-name="Group 24013" transform="translate(16.591 36.501)">
    <path id="Path_137180" data-name="Path 137180" d="M108.326,362.667h9.954a1.659,1.659,0,0,1,1.659,1.659h0a1.659,1.659,0,0,1-1.659,1.659h-9.954a1.659,1.659,0,0,1-1.659-1.659h0A1.659,1.659,0,0,1,108.326,362.667Z" transform="translate(-106.667 -342.758)" fill="#c4bfd7"/>
    <path id="Path_137181" data-name="Path 137181" d="M215,362.667h9.954a1.659,1.659,0,0,1,1.659,1.659h0a1.659,1.659,0,0,1-1.659,1.659H215a1.659,1.659,0,0,1-1.659-1.659h0A1.659,1.659,0,0,1,215,362.667Z" transform="translate(-196.745 -342.758)" fill="#c4bfd7"/>
    <path id="Path_137182" data-name="Path 137182" d="M257.656,234.667h16.591a1.659,1.659,0,0,1,1.659,1.659h0a1.659,1.659,0,0,1-1.659,1.659H257.656A1.659,1.659,0,0,1,256,236.326h0A1.659,1.659,0,0,1,257.656,234.667Z" transform="translate(-232.77 -234.667)" fill="#c4bfd7"/>
  </g>
  <circle id="Ellipse_72" data-name="Ellipse 72" cx="1.659" cy="1.659" r="1.659" transform="translate(6.637 6.637)" fill="#f7b236"/>
  <circle id="Ellipse_73" data-name="Ellipse 73" cx="1.659" cy="1.659" r="1.659" transform="translate(13.272 6.637)" fill="#420fab"/>
  <circle id="Ellipse_74" data-name="Ellipse 74" cx="1.659" cy="1.659" r="1.659" transform="translate(19.909 6.637)" fill="#d80e70"/>
  <path id="Path_137184" data-name="Path 137184" d="M323.554,149.334a1.659,1.659,0,0,0-1.659,1.659h0v41.478a3.318,3.318,0,0,1-3.318,3.318h-18.25a1.659,1.659,0,0,0,0,3.318h18.25a6.637,6.637,0,0,0,6.637-6.637V150.993a1.659,1.659,0,0,0-1.659-1.659Z" transform="translate(-252.212 -126.106)" fill="#c4bfd7"/>
</svg>
