<svg xmlns="http://www.w3.org/2000/svg" width="72.999" height="73.001" viewBox="0 0 72.999 73.001">
  <g id="data-analytics" transform="translate(-26.384 -25.667)">
    <g id="coding" transform="translate(26.383 25.663)">
      <path id="Path_137079" data-name="Path 137079" d="M5.917,0H59.1a5.909,5.909,0,0,1,5.909,5.909V59.094A5.909,5.909,0,0,1,59.1,65H5.917A5.909,5.909,0,0,1,.008,59.094V5.913A5.909,5.909,0,0,1,5.917,0Z" transform="translate(-0.007 0)" fill="#f0eaf9"/>
      <path id="Path_137081" data-name="Path 137081" d="M.008,85.338H32.591v53.317H5.932a5.924,5.924,0,0,1-5.924-5.924h0V85.338Z" transform="translate(-0.007 -73.651)" fill="#dcdcdc"/>
      <path id="Path_137083" data-name="Path 137083" d="M5.917,0H59.1a5.917,5.917,0,0,1,5.909,5.924h0v8.886h-65V5.928A5.917,5.917,0,0,1,5.917,0Z" transform="translate(-0.007)" fill="#2375d6"/>
      <path id="Path_137086" data-name="Path 137086" d="M320.891,149.338a1.481,1.481,0,0,0-1.481,1.481h0v37.026a2.962,2.962,0,0,1-2.962,2.962H300.156a1.481,1.481,0,0,0,0,2.962h16.291a5.924,5.924,0,0,0,5.924-5.924V150.819a1.481,1.481,0,0,0-1.481-1.481Z" transform="translate(-257.37 -128.765)" fill="#1c1852" opacity="0.2"/>
      <circle id="Ellipse_63" data-name="Ellipse 63" cx="1.481" cy="1.481" r="1.481" transform="translate(5.926 5.929)" fill="#f7b236"/>
      <circle id="Ellipse_64" data-name="Ellipse 64" cx="1.481" cy="1.481" r="1.481" transform="translate(11.817 5.929)" fill="#b39ddd"/>
      <circle id="Ellipse_65" data-name="Ellipse 65" cx="1.481" cy="1.481" r="1.481" transform="translate(17.726 5.928)" fill="#d80e70"/>
      <path id="Path_137095" data-name="Path 137095" d="M108.156,277.341h2.962a1.481,1.481,0,0,1,1.481,1.481h0a1.481,1.481,0,0,1-1.481,1.481h-2.962a1.481,1.481,0,0,1-1.481-1.481h0A1.481,1.481,0,0,1,108.156,277.341Z" transform="translate(-91.905 -238.932)" fill="#c4bfd7"/>
      <g id="Group_23993" data-name="Group 23993" transform="translate(5.925 20.573)">
        <path id="Path_137088" data-name="Path 137088" d="M44.156,277.341h2.962a1.481,1.481,0,0,1,1.481,1.481h0a1.481,1.481,0,0,1-1.481,1.481H44.156a1.481,1.481,0,0,1-1.481-1.481h0A1.481,1.481,0,0,1,44.156,277.341Z" transform="translate(-42.675 -259.569)" fill="#c4bfd7"/>
        <path id="Path_137089" data-name="Path 137089" d="M44.156,320h2.962a1.481,1.481,0,0,1,1.481,1.481h0a1.481,1.481,0,0,1-1.481,1.481H44.156a1.481,1.481,0,0,1-1.481-1.481h0A1.481,1.481,0,0,1,44.156,320Z" transform="translate(-42.675 -296.305)" fill="#c4bfd7"/>
        <path id="Path_137090" data-name="Path 137090" d="M44.156,362.671h2.962a1.481,1.481,0,0,1,1.481,1.481h0a1.481,1.481,0,0,1-1.481,1.481H44.156a1.481,1.481,0,0,1-1.481-1.481h0A1.481,1.481,0,0,1,44.156,362.671Z" transform="translate(-42.675 -333.051)" fill="#c4bfd7"/>
        <path id="Path_137091" data-name="Path 137091" d="M44.156,405.341h2.962a1.481,1.481,0,0,1,1.481,1.481h0a1.481,1.481,0,0,1-1.481,1.481H44.156a1.481,1.481,0,0,1-1.481-1.481h0A1.481,1.481,0,0,1,44.156,405.341Z" transform="translate(-42.675 -369.796)" fill="#c4bfd7"/>
        <path id="Path_137092" data-name="Path 137092" d="M44.156,234.671h2.962a1.481,1.481,0,0,1,1.481,1.481h0a1.481,1.481,0,0,1-1.481,1.481H44.156a1.481,1.481,0,0,1-1.481-1.481h0A1.481,1.481,0,0,1,44.156,234.671Z" transform="translate(-42.675 -222.823)" fill="#c4bfd7"/>
        <path id="Path_137093" data-name="Path 137093" d="M44.156,192h2.962a1.481,1.481,0,0,1,1.481,1.481h0a1.481,1.481,0,0,1-1.481,1.481H44.156a1.481,1.481,0,0,1-1.481-1.481h0A1.481,1.481,0,0,1,44.156,192Z" transform="translate(-42.675 -186.078)" fill="#c4bfd7"/>
        <path id="Path_137094" data-name="Path 137094" d="M44.156,149.341h2.962a1.481,1.481,0,0,1,1.481,1.481h0a1.481,1.481,0,0,1-1.481,1.481H44.156a1.481,1.481,0,0,1-1.481-1.481h0A1.481,1.481,0,0,1,44.156,149.341Z" transform="translate(-42.675 -149.341)" fill="#c4bfd7"/>
        <g id="Group_23991" data-name="Group 23991" transform="translate(8.886 0)">
          <path id="Path_137096" data-name="Path 137096" d="M108.156,320h5.924a1.481,1.481,0,0,1,1.481,1.481h0a1.481,1.481,0,0,1-1.481,1.481h-5.924a1.481,1.481,0,0,1-1.481-1.481h0A1.481,1.481,0,0,1,108.156,320Z" transform="translate(-106.675 -296.305)" fill="#c4bfd7"/>
          <path id="Path_137097" data-name="Path 137097" d="M108.156,362.671h2.962a1.481,1.481,0,0,1,1.481,1.481h0a1.481,1.481,0,0,1-1.481,1.481h-2.962a1.481,1.481,0,0,1-1.481-1.481h0A1.481,1.481,0,0,1,108.156,362.671Z" transform="translate(-106.675 -333.051)" fill="#c4bfd7"/>
          <path id="Path_137098" data-name="Path 137098" d="M108.156,405.341h2.962a1.481,1.481,0,0,1,1.481,1.481h0a1.481,1.481,0,0,1-1.481,1.481h-2.962a1.481,1.481,0,0,1-1.481-1.481h0A1.481,1.481,0,0,1,108.156,405.341Z" transform="translate(-106.675 -369.796)" fill="#c4bfd7"/>
          <path id="Path_137099" data-name="Path 137099" d="M108.156,234.671h2.962a1.481,1.481,0,0,1,1.481,1.481h0a1.481,1.481,0,0,1-1.481,1.481h-2.962a1.481,1.481,0,0,1-1.481-1.481h0A1.481,1.481,0,0,1,108.156,234.671Z" transform="translate(-106.675 -222.823)" fill="#c4bfd7"/>
          <path id="Path_137100" data-name="Path 137100" d="M172.155,234.671h0a1.481,1.481,0,0,1,1.481,1.481h0a1.481,1.481,0,0,1-1.481,1.481h0a1.481,1.481,0,0,1-1.481-1.481h0A1.481,1.481,0,0,1,172.155,234.671Z" transform="translate(-161.788 -222.823)" fill="#c4bfd7"/>
          <path id="Path_137101" data-name="Path 137101" d="M108.156,192h8.886a1.481,1.481,0,0,1,1.481,1.481h0a1.481,1.481,0,0,1-1.481,1.481h-8.886a1.481,1.481,0,0,1-1.481-1.481h0A1.481,1.481,0,0,1,108.156,192Z" transform="translate(-106.675 -186.078)" fill="#c4bfd7"/>
          <path id="Path_137102" data-name="Path 137102" d="M108.156,149.341h5.924a1.481,1.481,0,0,1,1.481,1.481h0a1.481,1.481,0,0,1-1.481,1.481h-5.924a1.481,1.481,0,0,1-1.481-1.481h0A1.481,1.481,0,0,1,108.156,149.341Z" transform="translate(-106.675 -149.341)" fill="#c4bfd7"/>
        </g>
      </g>
      <g id="Group_23992" data-name="Group 23992" transform="translate(38.343 20.573)" opacity="0.2">
        <path id="Path_137103" data-name="Path 137103" d="M280.307,298.671h14.81a2.962,2.962,0,0,1,2.962,2.962v5.924a2.962,2.962,0,0,1-2.962,2.962h-14.81a2.962,2.962,0,0,1-2.962-2.962v-5.924A2.962,2.962,0,0,1,280.307,298.671Z" transform="translate(-277.345 -277.937)" fill="#1c1852"/>
        <path id="Path_137104" data-name="Path 137104" d="M278.826,405.341h8.886a1.481,1.481,0,0,1,1.481,1.481h0a1.481,1.481,0,0,1-1.481,1.481h-8.886a1.481,1.481,0,0,1-1.481-1.481h0A1.481,1.481,0,0,1,278.826,405.341Z" transform="translate(-277.345 -369.796)" fill="#1c1852"/>
        <path id="Path_137105" data-name="Path 137105" d="M385.486,405.341h2.962a1.481,1.481,0,0,1,1.481,1.481h0a1.481,1.481,0,0,1-1.481,1.481h-2.962A1.481,1.481,0,0,1,384,406.822h0A1.481,1.481,0,0,1,385.486,405.341Z" transform="translate(-369.196 -369.796)" fill="#1c1852"/>
        <path id="Path_137106" data-name="Path 137106" d="M280.307,149.341h14.81a2.962,2.962,0,0,1,2.962,2.962v5.924a2.962,2.962,0,0,1-2.962,2.962h-14.81a2.962,2.962,0,0,1-2.962-2.962V152.3A2.962,2.962,0,0,1,280.307,149.341Z" transform="translate(-277.345 -149.341)" fill="#1c1852"/>
        <path id="Path_137107" data-name="Path 137107" d="M278.826,256h8.886a1.481,1.481,0,0,1,1.481,1.481h0a1.481,1.481,0,0,1-1.481,1.481h-8.886a1.481,1.481,0,0,1-1.481-1.481h0A1.481,1.481,0,0,1,278.826,256Z" transform="translate(-277.345 -241.192)" fill="#1c1852"/>
        <path id="Path_137108" data-name="Path 137108" d="M385.486,256h2.962a1.481,1.481,0,0,1,1.481,1.481h0a1.481,1.481,0,0,1-1.481,1.481h-2.962A1.481,1.481,0,0,1,384,257.482h0A1.481,1.481,0,0,1,385.486,256Z" transform="translate(-369.196 -241.192)" fill="#1c1852"/>
      </g>
    </g>
    <path id="Path_137109" data-name="Path 137109" d="M312.031,41.285l3.116-2.673L313.6,34.581l-4.1.1-2.344-2.465.314-4.093-3.947-1.754-2.828,2.976-3.4-.087-2.673-3.116L290.582,27.7l.1,4.1-2.465,2.344-4.093-.314-1.754,3.947L285.35,40.6c-.035,1.358-.052,2.044-.087,3.4l-3.116,2.673,1.55,4.031,4.1-.1,2.344,2.467-.314,4.093,3.947,1.754,2.828-2.976,3.4.087,2.673,3.116,4.031-1.551-.1-4.1,2.467-2.344,4.093.314,1.754-3.947-2.977-2.829c.035-1.358.052-2.044.087-3.4Zm-10.538,8.76A7.928,7.928,0,1,1,306.047,39.8a7.928,7.928,0,0,1-4.554,10.246Z" transform="translate(-215.764 39.521)" fill="#ffc119"/>
  </g>
</svg>
