<svg id="Group_8849" data-name="Group 8849" xmlns="http://www.w3.org/2000/svg" width="20" height="15" viewBox="0 0 20 15">
  <path id="Path_45440" data-name="Path 45440" d="M1.92,59.676q.379.268,2.288,1.594t2.924,2.042q.112.078.474.341t.6.425q.24.162.58.364a3.364,3.364,0,0,0,.642.3,1.765,1.765,0,0,0,.558.1h.022a1.766,1.766,0,0,0,.558-.1,3.367,3.367,0,0,0,.642-.3q.34-.2.58-.364t.6-.425q.363-.263.474-.341l5.223-3.636A5.308,5.308,0,0,0,19.453,58.3,2.959,2.959,0,0,0,20,56.61a1.8,1.8,0,0,0-1.786-1.79H1.786A1.592,1.592,0,0,0,.463,55.4,2.262,2.262,0,0,0,0,56.856a2.617,2.617,0,0,0,.614,1.527A5.546,5.546,0,0,0,1.92,59.676Z" transform="translate(0 -54.82)" fill="#2375d6"/>
  <path id="Path_45441" data-name="Path 45441" d="M18.884,185.339q-3.66,2.3-5.558,3.578-.636.435-1.032.679a6.565,6.565,0,0,1-1.055.5,3.42,3.42,0,0,1-1.227.254H9.989a3.421,3.421,0,0,1-1.228-.254,6.568,6.568,0,0,1-1.055-.5q-.4-.244-1.032-.679-1.507-1.027-5.547-3.578a5.813,5.813,0,0,1-1.127-.9v8.234a1.543,1.543,0,0,0,.525,1.172,1.787,1.787,0,0,0,1.261.487H18.214a1.787,1.787,0,0,0,1.261-.487A1.543,1.543,0,0,0,20,192.671v-8.234A6.045,6.045,0,0,1,18.884,185.339Z" transform="translate(0 -179.33)" fill="#2375d6"/>
</svg>
