<svg id="Group_43716" data-name="Group 43716" xmlns="http://www.w3.org/2000/svg" xmlns:xlink="http://www.w3.org/1999/xlink" width="19" height="19" viewBox="0 0 19 19">
  <defs>
    <clipPath id="clip-path">
      <path id="Profile" d="M17.453,19H1.662A1.945,1.945,0,0,1,.127,18.42c-.253-.35-.077-1.058.1-1.453L.648,16A20.044,20.044,0,0,1,3.16,11.847,1.91,1.91,0,0,1,5.59,11.43a6.472,6.472,0,0,1,1.15,1.02,3.737,3.737,0,0,0,2.505.874h.784a3.732,3.732,0,0,0,2.5-.874,6.9,6.9,0,0,1,1.135-1.043,1.746,1.746,0,0,1,2.262.441,17.431,17.431,0,0,1,2.4,4.2l.435.95c.18.393.365,1.1.118,1.451A1.616,1.616,0,0,1,17.569,19C17.5,19,17.453,19,17.453,19ZM4.532,5.306A5.062,5.062,0,0,1,9.478,0a5.064,5.064,0,0,1,4.947,5.306,5.258,5.258,0,0,1-4.947,5.52A5.257,5.257,0,0,1,4.532,5.306Z" fill="#2375d6"/>
    </clipPath>
  </defs>
  <path id="Profile-2" data-name="Profile" d="M17.453,19H1.662A1.945,1.945,0,0,1,.127,18.42c-.253-.35-.077-1.058.1-1.453L.648,16A20.044,20.044,0,0,1,3.16,11.847,1.91,1.91,0,0,1,5.59,11.43a6.472,6.472,0,0,1,1.15,1.02,3.737,3.737,0,0,0,2.505.874h.784a3.732,3.732,0,0,0,2.5-.874,6.9,6.9,0,0,1,1.135-1.043,1.746,1.746,0,0,1,2.262.441,17.431,17.431,0,0,1,2.4,4.2l.435.95c.18.393.365,1.1.118,1.451A1.616,1.616,0,0,1,17.569,19C17.5,19,17.453,19,17.453,19ZM4.532,5.306A5.062,5.062,0,0,1,9.478,0a5.064,5.064,0,0,1,4.947,5.306,5.258,5.258,0,0,1-4.947,5.52A5.257,5.257,0,0,1,4.532,5.306Z" fill="#2375d6"/>
  <g id="Mask_Group_12" data-name="Mask Group 12" transform="translate(0)" clip-path="url(#clip-path)">
    <g id="color_primary" data-name="color/primary" transform="translate(-3.563 -3.563)">
      <rect id="color_primary-2" data-name="color/primary" width="26.125" height="26.125" fill="#2375d6"/>
    </g>
  </g>
</svg>
