<svg id="mobile-phone" xmlns="http://www.w3.org/2000/svg" width="16" height="28" viewBox="0 0 16 28">
  <path id="Path_45448" data-name="Path 45448" d="M88.3.831A2.5,2.5,0,0,0,86.423,0H75.757a2.5,2.5,0,0,0-1.875.831A2.758,2.758,0,0,0,73.09,2.8V25.2a2.758,2.758,0,0,0,.792,1.969A2.5,2.5,0,0,0,75.757,28H86.423a2.5,2.5,0,0,0,1.875-.831A2.758,2.758,0,0,0,89.09,25.2V2.8A2.757,2.757,0,0,0,88.3.831ZM79.423,2.8h3.334q.333,0,.333.35t-.333.35H79.423q-.333,0-.333-.35T79.423,2.8Zm2.844,23.636a1.605,1.605,0,0,1-2.354,0,1.8,1.8,0,0,1,0-2.472,1.6,1.6,0,0,1,2.354,0,1.805,1.805,0,0,1,0,2.472ZM87.09,21.7a.689.689,0,0,1-.2.492.626.626,0,0,1-.468.207H75.757a.627.627,0,0,1-.469-.207.69.69,0,0,1-.2-.492V6.3a.689.689,0,0,1,.2-.492.627.627,0,0,1,.469-.208H86.423a.626.626,0,0,1,.469.208.688.688,0,0,1,.2.492V21.7h0Z" transform="translate(-73.09)" fill="#2375d6"/>
</svg>
