<svg xmlns="http://www.w3.org/2000/svg" width="63" height="60" viewBox="0 0 63 60">
  <g id="like_3_" data-name="like (3)" transform="translate(0 -10.667)">
    <g id="Group_48204" data-name="Group 48204" transform="translate(0 36.754)">
      <g id="Group_48203" data-name="Group 48203" transform="translate(0 0)">
        <path id="Path_137250" data-name="Path 137250" d="M6.522,224A6.531,6.531,0,0,0,0,230.522v20.87a6.531,6.531,0,0,0,6.522,6.522h7.826a6.475,6.475,0,0,0,3.913-1.32V224Z" transform="translate(0 -224)" fill="#2375d6"/>
      </g>
    </g>
    <g id="Group_48206" data-name="Group 48206" transform="translate(21.261 10.667)">
      <g id="Group_48205" data-name="Group 48205" transform="translate(0 0)">
        <path id="Path_137251" data-name="Path 137251" d="M212.406,46.537a5.785,5.785,0,0,0-1.7-4.106,6.477,6.477,0,0,0,1.67-4.98,6.743,6.743,0,0,0-6.8-5.914H189.46A37.508,37.508,0,0,0,191.536,21.1c0-5.658-4.808-10.435-7.826-10.435a8.205,8.205,0,0,0-4.73,1.589,1.311,1.311,0,0,0-.488,1.02v8.846L170.98,38.4l-.313.159v27.96a17.092,17.092,0,0,0,6.522,1.542h23.945a6,6,0,0,0,5.911-4.557,5.868,5.868,0,0,0-.472-3.918,5.843,5.843,0,0,0,2.611-7.829A5.84,5.84,0,0,0,212.406,46.537Z" transform="translate(-170.667 -10.667)" fill="#ffbfab"/>
      </g>
    </g>
  </g>
</svg>
