<svg xmlns="http://www.w3.org/2000/svg" width="138.932" height="174.199" viewBox="0 0 138.932 174.199">
  <g id="Group_46400" data-name="Group 46400" transform="translate(-119.962 -292.649)">
    <path id="Subtraction_4" data-name="Subtraction 4" d="M1308.61,1069.772a34.479,34.479,0,0,1-29.341-14.858,38.349,38.349,0,0,0,5.23-19.907c0-10.355-3.374-19.219-10.029-26.345a35.789,35.789,0,0,0-6.4-5.457,84.325,84.325,0,0,1,2.419-14.764,51.9,51.9,0,0,1,8.584-18.19,35.244,35.244,0,0,1,12.83-11.413,39.4,39.4,0,0,1,33.459.022,35.759,35.759,0,0,1,12.784,11.216,54.286,54.286,0,0,1,8.514,18.278,93.465,93.465,0,0,1,2.838,24.05,92.133,92.133,0,0,1-2.907,24.006,56.839,56.839,0,0,1-8.446,18.409,38.439,38.439,0,0,1-12.969,11.063A35.673,35.673,0,0,1,1308.61,1069.772Zm-.185-98.648c-9.57,0-15.45,3.2-18.5,10.058-2.97,6.673-4.477,17.178-4.477,31.221s1.506,24.518,4.477,31.133c3.054,6.8,8.948,9.97,18.548,9.97h.141c9.711-.033,15.665-3.243,18.735-10.1,3-6.7,4.522-17.133,4.522-31,0-13.811-1.522-24.256-4.522-31.046-3.066-6.937-9.02-10.189-18.735-10.232Z" transform="translate(-1092 -662)" fill="#fff"/>
    <path id="Path_134170" data-name="Path 134170" d="M11.737,1.187a3.015,3.015,0,0,1,4.8,0l11.4,17.41c1,1.521-.322,3.377-2.4,3.377H2.737c-2.076,0-3.394-1.856-2.4-3.377Z" transform="translate(228.597 336.312) rotate(90)" fill="#fff"/>
    <path id="Subtraction_6" data-name="Subtraction 6" d="M1242.735,1054a40.777,40.777,0,0,1-4.848-.283,11.773,11.773,0,0,0-17.964-8.159c-.808-.749-1.592-1.553-2.332-2.389a36.27,36.27,0,0,1-7.194-12.5,49.476,49.476,0,0,1-2.4-15.845,70.847,70.847,0,0,1,1.234-13.108,77.626,77.626,0,0,1,3.7-13.05,85,85,0,0,1,6.02-12.61,92.159,92.159,0,0,1,8.19-11.788,101.3,101.3,0,0,1,10.451-10.958,126.571,126.571,0,0,1,12.8-10.117,13.144,13.144,0,0,1,5.161-1.189,7.373,7.373,0,0,1,5.97,2.718,7.767,7.767,0,0,1,1.752,3.574,6.229,6.229,0,0,1-.2,2.948,7.274,7.274,0,0,1-1.557,2.741,96.76,96.76,0,0,0-20.959,17.629,67.986,67.986,0,0,0-12.828,22.487,42.728,42.728,0,0,1,8.743-3.344,35.254,35.254,0,0,1,8.7-1.114,31,31,0,0,1,12,2.288,30.047,30.047,0,0,1,9.947,6.862,30.952,30.952,0,0,1,6.691,10.186,33.033,33.033,0,0,1,2.23,12.257,31.322,31.322,0,0,1-9.71,23.225c-.665.653-1.358,1.284-2.06,1.875a11.771,11.771,0,0,0-19.069,7.587C1244.392,1053.973,1243.56,1054,1242.735,1054Zm-3.824-24.648v9.878a21.1,21.1,0,0,0,4.062.381,20.354,20.354,0,0,0,2.935-.207v-10.052Zm12,0v8.526a16.487,16.487,0,0,0,4.577-3.35,17.042,17.042,0,0,0,3.467-5.176Zm-24.953,0h0a18.461,18.461,0,0,0,4.276,5.447,17.584,17.584,0,0,0,3.681,2.658v-8.1Zm24.953-11v6h9.648a18.694,18.694,0,0,0,.162-6Zm-12,0v6h7v-6Zm-14.857,0a18.709,18.709,0,0,0-.168,2.5,18.436,18.436,0,0,0,.335,3.5h9.691v-6Zm26.854-13.918h0v8.917h8.389a18.658,18.658,0,0,0-8.389-8.917Zm-8.523-2.083a18.592,18.592,0,0,0-3.474.328v10.672h7v-10.663A18.577,18.577,0,0,0,1242.385,1002.351Zm-8.474,2.057a18.65,18.65,0,0,0-8.437,8.942h8.437v-8.942Z" transform="translate(-1085.886 -649.351)" fill="#fff"/>
    <path id="Subtraction_8" data-name="Subtraction 8" d="M1216.827,959.655a8.827,8.827,0,1,1,8.828-8.827A8.837,8.837,0,0,1,1216.827,959.655Zm0-12.358a3.531,3.531,0,1,0,3.532,3.531A3.535,3.535,0,0,0,1216.827,947.3Z" transform="translate(-1045.836 -544.695)" fill="#fff"/>
    <path id="Subtraction_7" data-name="Subtraction 7" d="M1216.827,959.655a8.827,8.827,0,1,1,8.828-8.827A8.837,8.837,0,0,1,1216.827,959.655Zm0-12.358a3.531,3.531,0,1,0,3.532,3.531A3.535,3.535,0,0,0,1216.827,947.3Z" transform="translate(-1076.464 -544.695)" fill="#fff"/>
    <text id="Sell" transform="translate(119.962 458.848)" fill="#fff" font-size="32" font-family="DroidSerif-Bold, Droid Serif" font-weight="700" letter-spacing="-0.06em"><tspan x="0" y="0">Sell</tspan></text>
    <text id="Buy" transform="translate(200.894 458.848)" fill="#fff" font-size="32" font-family="DroidSerif-Bold, Droid Serif" font-weight="700" letter-spacing="-0.06em"><tspan x="0" y="0">Buy</tspan></text>
    <text id="_" data-name="&amp;" transform="translate(174.522 458.848)" fill="#fff" font-size="32" font-family="DroidSerif-Bold, Droid Serif" font-weight="700" letter-spacing="-0.03em"><tspan x="0" y="0">&amp;</tspan></text>
  </g>
</svg>
