<svg id="noise" xmlns="http://www.w3.org/2000/svg" width="60" height="60" viewBox="0 0 60 60">
  <path id="Path_137189" data-name="Path 137189" d="M302.714,10.7a1.757,1.757,0,0,0,1.758-1.758V1.788a1.758,1.758,0,1,0-3.516,0v7.15A1.757,1.757,0,0,0,302.714,10.7Z" transform="translate(-265.685 -0.03)" fill="#ffd400"/>
  <path id="Path_137190" data-name="Path 137190" d="M361.923,14.031a1.76,1.76,0,0,0,2.359-.786l2.426-4.85,1.791,1.791a1.743,1.743,0,0,0,1.525.493,1.761,1.761,0,0,0,1.291-.95l3.634-7.15A1.758,1.758,0,0,0,371.8,1.006l-2.543,4.968-1.791-1.791a1.758,1.758,0,0,0-2.816.457l-3.516,7.033a1.758,1.758,0,0,0,.786,2.359Z" transform="translate(-318.65 -0.034)" fill="#ffd400"/>
  <path id="Path_137191" data-name="Path 137191" d="M397.586,120.788a1.763,1.763,0,0,0-1.272-.635,1.792,1.792,0,0,0-1.326.513l-3.516,3.516a1.758,1.758,0,1,0,2.486,2.486l2.151-2.151,2.283,2.757a1.76,1.76,0,0,0,2.709,0l3.634-4.362a1.758,1.758,0,1,0-2.709-2.242l-2.279,2.727Z" transform="translate(-345.139 -105.968)" fill="#ffd400"/>
  <path id="Path_137192" data-name="Path 137192" d="M5.057,305.751a8.783,8.783,0,0,0,12.431,0l3.731-3.729L6.3,287.1l-3.729,3.729a8.8,8.8,0,0,0,0,12.432Z" transform="translate(-0.001 -253.455)" fill="#2375d6"/>
  <path id="Path_137193" data-name="Path 137193" d="M108.67,126.405,85.753,103.488a48.142,48.142,0,0,1-11.068,19l14.982,14.982A48.128,48.128,0,0,1,108.67,126.405Z" transform="translate(-65.931 -91.362)" fill="#2375d6"/>
  <path id="Path_137194" data-name="Path 137194" d="M208.861,47.343a1.757,1.757,0,0,0,.817-2.948L182.327,17.044a1.757,1.757,0,0,0-2.948.817l-1.236,4.945,25.773,25.773Z" transform="translate(-157.269 -14.594)" fill="#2375d6"/>
  <path id="Path_137195" data-name="Path 137195" d="M165.416,415.8l-5.278,5.276a12.318,12.318,0,0,1-1.363,1.122l3.581,3.581a1.758,1.758,0,0,0,2.486,0l4.972-4.972a1.757,1.757,0,0,0,0-2.486l-3.4-3.4C166.095,415.232,165.731,415.487,165.416,415.8Z" transform="translate(-140.167 -366.297)" fill="#ff6c6c"/>
</svg>
