<svg xmlns="http://www.w3.org/2000/svg" width="571.204" height="498.224" viewBox="0 0 571.204 498.224">
  <g id="Polygon_4" data-name="Polygon 4" transform="matrix(0.914, 0.407, -0.407, 0.914, 135.443, 0)" fill="#2375d6">
    <path d="M 147.4080505371094 312.9407958984375 C 144.1970520019531 312.9408874511719 141.0633544921875 312.2518920898438 138.0939483642578 310.8929443359375 C 135.2141571044922 309.574951171875 132.5832061767578 307.6325378417969 130.485595703125 305.2756958007813 C 126.2142486572266 300.4764404296875 124.2789535522461 294.2636108398438 125.0362014770508 287.7815551757813 L 131.3605499267578 233.6489562988281 C 132.6237487792969 222.8363952636719 126.3740997314453 212.6502532958984 116.1624526977539 208.8780517578125 L 58.57794952392578 187.6060028076172 C 53.94820022583008 185.8957061767578 50.13479995727539 182.9116058349609 47.550048828125 178.9763031005859 C 45.14559936523438 175.3153533935547 43.87464904785156 171.0011444091797 43.87464904785156 166.5000457763672 C 43.87459945678711 161.9989471435547 45.14554977416992 157.6846923828125 47.550048828125 154.0237426757813 C 50.13479995727539 150.0883941650391 53.94820022583008 147.1042938232422 58.57794952392578 145.3939971923828 L 116.1624526977539 124.1220016479492 C 126.3740997314453 120.3498001098633 132.6237487792969 110.1635971069336 131.3605041503906 99.35109710693359 L 125.0362014770508 45.21849822998047 C 124.2789993286133 38.73730087280273 126.2143020629883 32.52484893798828 130.485595703125 27.72545051574707 C 132.5832977294922 25.36845016479492 135.2142944335938 23.42584991455078 138.0941925048828 22.10759925842285 C 141.0635986328125 20.74844932556152 144.1972503662109 20.05924987792969 147.4080047607422 20.05924987792969 C 151.3072967529297 20.05924987792969 155.0601501464844 21.0757999420166 158.5623931884766 23.0806999206543 L 226.824951171875 62.15774917602539 C 230.3737030029297 64.18924713134766 234.4108428955078 65.26304626464844 238.4999542236328 65.26304626464844 C 242.5890502929688 65.26304626464844 246.6262054443359 64.18924713134766 250.1749572753906 62.15774917602539 L 318.4375610351563 23.08065032958984 C 321.9397888183594 21.07575035095215 325.6926574707031 20.05920028686523 329.5919494628906 20.05920028686523 C 332.8030395507813 20.05920028686523 335.9368591308594 20.74835014343262 338.9063415527344 22.10740089416504 C 341.7862548828125 23.42550086975098 344.417236328125 25.36800003051758 346.5148620605469 27.72495079040527 C 350.785888671875 32.52405166625977 352.7210388183594 38.73669815063477 351.9638061523438 45.21844863891602 L 345.6394958496094 99.35105133056641 C 344.3762512207031 110.1635513305664 350.6258850097656 120.3497467041016 360.8375549316406 124.1220016479492 L 418.4220581054688 145.3939971923828 C 423.0517883300781 147.1042938232422 426.8652038574219 150.0883941650391 429.449951171875 154.0237426757813 C 431.8544616699219 157.6846923828125 433.1253967285156 161.9989013671875 433.1253967285156 166.5 C 433.1253967285156 171.0010986328125 431.8544616699219 175.3153076171875 429.449951171875 178.9762573242188 C 426.8652038574219 182.9116058349609 423.0517883300781 185.8957061767578 418.4220581054688 187.6060028076172 L 360.8375549316406 208.8780059814453 C 350.6258850097656 212.6502075195313 344.3761901855469 222.8363494873047 345.6394958496094 233.6488952636719 L 351.9638061523438 287.7815856933594 C 352.7208862304688 294.2620544433594 350.7859497070313 300.4739379882813 346.5153503417969 305.27294921875 C 344.4176940917969 307.6301879882813 341.7865905761719 309.5730590820313 338.9064636230469 310.8915405273438 C 335.9368591308594 312.2510070800781 332.8030090332031 312.9404602050781 329.5918884277344 312.9407348632813 C 325.6932983398438 312.941162109375 321.9404602050781 311.9245910644531 318.4375610351563 309.9193420410156 L 250.1750030517578 270.8422546386719 C 246.6262512207031 268.8107604980469 242.5890960693359 267.7369995117188 238.5 267.7369995117188 C 234.4109039306641 267.7369995117188 230.3737487792969 268.8107604980469 226.8249969482422 270.8422546386719 L 158.5624542236328 309.9193420410156 C 155.0605010986328 311.9241027832031 151.3076019287109 312.9406433105469 147.4080505371094 312.9407958984375 Z" stroke="none"/>
    <path d="M 329.5919494628906 20.5592041015625 C 325.7809448242188 20.5592041015625 322.1116333007813 21.55355834960938 318.6859436035156 23.51455688476563 L 250.4233551025391 62.59164428710938 C 246.7991027832031 64.66635131835938 242.6760559082031 65.76300048828125 238.4999542236328 65.76300048828125 C 234.3238067626953 65.76300048828125 230.2007446289063 64.66635131835938 226.5765533447266 62.59164428710938 L 158.3139953613281 23.51458740234375 C 154.8876647949219 21.55325317382813 151.2184143066406 20.55889892578125 147.4081115722656 20.55926513671875 C 144.269287109375 20.55953979492188 141.2054443359375 21.2337646484375 138.3016052246094 22.5631103515625 C 135.4840087890625 23.85293579101563 132.9100952148438 25.75360107421875 130.8580932617188 28.0594482421875 C 126.6837463378906 32.75039672851563 124.7925109863281 38.82363891601563 125.5328369140625 45.16046142578125 L 131.8571472167969 99.29304504394531 C 133.1471862792969 110.3356475830078 126.7645874023438 120.7385559082031 116.335693359375 124.5910491943359 L 58.75119018554688 145.8630523681641 C 54.222412109375 147.5359954833984 50.49359130859375 150.4528503417969 47.96795654296875 154.2982482910156 C 45.6171875 157.8774566650391 44.37460327148438 162.0967559814453 44.37466430664063 166.5000457763672 C 44.37466430664063 170.9033508300781 45.6171875 175.1226501464844 47.96798706054688 178.7017974853516 C 50.49365234375 182.5471496582031 54.222412109375 185.4640045166016 58.75119018554688 187.1369476318359 L 116.335693359375 208.4089965820313 C 126.7646484375 212.2615051269531 133.1472473144531 222.6643981933594 131.8571472167969 233.7070007324219 L 125.5328369140625 287.839599609375 C 124.7923889160156 294.1776428222656 126.6838073730469 300.2515869140625 130.8587036132813 304.9426574707031 C 132.9106140136719 307.2481994628906 135.4843444824219 309.1484375 138.3017578125 310.4379577636719 C 141.2054443359375 311.7669067382813 144.2692565917969 312.4407348632813 147.4079895019531 312.4407348632813 C 151.2190551757813 312.4407348632813 154.8883361816406 311.4464111328125 158.3140563964844 309.4854125976563 L 226.5765991210938 270.4083557128906 C 230.2008514404297 268.3336181640625 234.3238983154297 267.2369384765625 238.5 267.2369384765625 C 242.6761016845703 267.2369384765625 246.7991485595703 268.3336181640625 250.4234008789063 270.4083557128906 L 318.6859436035156 309.4854125976563 C 322.1116943359375 311.4464111328125 325.781005859375 312.4407348632813 329.5919494628906 312.4407348632813 C 332.7304077148438 312.4407348632813 335.7940063476563 311.766845703125 338.6976318359375 310.437744140625 C 341.5150451660156 309.148193359375 344.0888671875 307.2478637695313 346.1408081054688 304.942138671875 C 350.3159484863281 300.2508544921875 352.2075500488281 294.1770629882813 351.4671630859375 287.839599609375 L 345.142822265625 233.7069396972656 C 343.8527526855469 222.6643524169922 350.2354125976563 212.2613983154297 360.664306640625 208.4089508056641 L 418.2487487792969 187.1369476318359 C 422.7775573730469 185.4640045166016 426.50634765625 182.5471496582031 429.0320129394531 178.7017517089844 C 431.3828125 175.1226043701172 432.6253662109375 170.9033050537109 432.6253662109375 166.5 C 432.6253662109375 162.0966949462891 431.3828125 157.8773956298828 429.0320129394531 154.2982482910156 C 426.50634765625 150.4528503417969 422.7775573730469 147.5359954833984 418.2487487792969 145.8630523681641 L 360.664306640625 124.5910491943359 C 350.2354125976563 120.7385559082031 343.8527526855469 110.3356018066406 345.142822265625 99.29299926757813 L 351.4671630859375 45.16033935546875 C 352.2076416015625 38.82235717773438 350.3162536621094 32.7484130859375 346.141357421875 28.05734252929688 C 344.0894470214844 25.75180053710938 341.5156555175781 23.8515625 338.6982421875 22.56204223632813 C 335.7945556640625 21.23306274414063 332.7307434082031 20.5592041015625 329.5919494628906 20.5592041015625 M 329.5919494628906 19.5592041015625 C 342.5272827148438 19.5592041015625 354.154541015625 30.775634765625 352.4603881835938 45.27639770507813 L 346.1360473632813 99.4090576171875 C 344.9039916992188 109.9550018310547 351.0509643554688 119.9737548828125 361.0108032226563 123.6529998779297 L 418.5952453613281 144.9250030517578 C 438.6354064941406 152.3279571533203 438.6354064941406 180.6720428466797 418.5952453613281 188.0749969482422 L 361.0108032226563 209.3470001220703 C 351.0509643554688 213.0261993408203 344.9039916992188 223.0449981689453 346.1360473632813 233.5908966064453 L 352.4603881835938 287.7235412597656 C 354.1543273925781 302.2232055664063 342.5260620117188 313.4407348632813 329.5919799804688 313.4407348632813 C 325.8018798828125 313.4407348632813 321.901611328125 312.4784545898438 318.1891479492188 310.3532409667969 L 249.9266052246094 271.2761840820313 C 246.38720703125 269.2500610351563 242.443603515625 268.2369689941406 238.5 268.2369689941406 C 234.556396484375 268.2369689941406 230.61279296875 269.2500610351563 227.0733947753906 271.2761840820313 L 158.8108520507813 310.3532409667969 C 155.099365234375 312.4779052734375 151.1971435546875 313.4407653808594 147.4080200195313 313.4407653808594 C 134.4726867675781 313.4407653808594 122.8454895019531 302.2243347167969 124.5396118164063 287.7235412597656 L 130.8638916015625 233.5909423828125 C 132.0960083007813 223.0449981689453 125.9490356445313 213.0262451171875 115.9891967773438 209.3470458984375 L 58.40469360351563 188.0749969482422 C 38.36459350585938 180.6721038818359 38.36459350585938 152.3279571533203 58.40469360351563 144.9250030517578 L 115.9891967773438 123.6529998779297 C 125.9490051269531 119.9738006591797 132.095947265625 109.9550018310547 130.8638916015625 99.40910339355469 L 124.5396118164063 45.2764892578125 C 122.8455810546875 30.77685546875 134.473876953125 19.560546875 147.4079895019531 19.55926513671875 C 151.1980895996094 19.55889892578125 155.0982971191406 20.52154541015625 158.810791015625 22.64675903320313 L 227.0733489990234 61.72378540039063 C 230.6127777099609 63.74993896484375 234.5563659667969 64.76303100585938 238.4999542236328 64.76303100585938 C 242.4435424804688 64.76303100585938 246.3871307373047 63.74993896484375 249.9265441894531 61.72378540039063 L 318.1891479492188 22.64669799804688 C 321.900634765625 20.52206420898438 325.8027954101563 19.5592041015625 329.5919494628906 19.5592041015625 Z" stroke="none" fill="#707070"/>
  </g>
</svg>
