<svg id="user-group" xmlns="http://www.w3.org/2000/svg" width="71" height="60" viewBox="0 0 71 60">
  <path id="Path_137196" data-name="Path 137196" d="M139.822,58.621c6.708,0,12.147-6.605,12.147-14.753s-1.786-14.754-12.147-14.754-12.147,6.605-12.147,14.754S133.114,58.621,139.822,58.621Z" transform="translate(-104.322 -29.114)" fill="#ffb097"/>
  <path id="Path_137197" data-name="Path 137197" d="M114.51,217.5c-.225-14.194-2.08-18.239-16.272-20.8,0,0-2,2.544-6.655,2.544s-6.654-2.544-6.654-2.544c-14.037,2.532-16.005,6.517-16.264,20.338-.021,1.129-.031,1.188-.035,1.057,0,.246,0,.7,0,1.491,0,0,3.379,6.808,22.951,6.808s22.951-6.808,22.951-6.808c0-.509,0-.863,0-1.1A8.9,8.9,0,0,1,114.51,217.5Z" transform="translate(-56.083 -166.391)" fill="#2375d6"/>
  <path id="Path_137198" data-name="Path 137198" d="M266.2,68.983c5.448,0,9.865-5.365,9.865-11.983s-1.45-11.983-9.865-11.983a14.066,14.066,0,0,0-3.681.437c1.944,3.583,2.21,7.935,2.21,11.409a20.23,20.23,0,0,1-3.03,10.8A8.45,8.45,0,0,0,266.2,68.983Z" transform="translate(-213.828 -42.11)" fill="#ffbfab"/>
  <path id="Path_137199" data-name="Path 137199" d="M302.881,198.018c-.183-11.528-1.688-14.813-13.21-16.893,0,0-1.622,2.067-5.4,2.067-.156,0-.308,0-.457-.012a15.157,15.157,0,0,1,6.2,4.8c2.782,3.814,3.421,8.938,3.553,16.466,7.751-1.532,9.34-4.73,9.34-4.73,0-.417,0-.7,0-.9A6.8,6.8,0,0,1,302.881,198.018Z" transform="translate(-231.902 -153.583)" fill="#ff6c6c"/>
  <path id="Path_137200" data-name="Path 137200" d="M57.82,68.984a8.454,8.454,0,0,0,4.5-1.321,20.231,20.231,0,0,1-3.03-10.8c0-3.474.266-7.826,2.21-11.409a14.063,14.063,0,0,0-3.681-.437c-8.415,0-9.865,5.365-9.865,11.983S52.372,68.984,57.82,68.984Z" transform="translate(-39.187 -42.111)" fill="#ffbfab"/>
  <path id="Path_137201" data-name="Path 137201" d="M19.09,183.179c-.149.007-.3.012-.457.012-3.78,0-5.4-2.067-5.4-2.067C1.709,183.2.2,186.488.021,198.017a6.994,6.994,0,0,1-.021.8c0,.2,0,.481,0,.9,0,0,1.589,3.2,9.34,4.73.133-7.527.772-12.651,3.554-16.466A15.156,15.156,0,0,1,19.09,183.179Z" transform="translate(0 -153.582)" fill="#ff6c6c"/>
</svg>
