<svg xmlns="http://www.w3.org/2000/svg" width="73" height="72.999" viewBox="0 0 73 72.999">
  <g id="web-design" transform="translate(0 -0.003)">
    <path id="Path_137057" data-name="Path 137057" d="M6.636,0H66.362A6.636,6.636,0,0,1,73,6.639V59.73a6.636,6.636,0,0,1-6.636,6.636H6.636A6.636,6.636,0,0,1,0,59.73V6.639A6.636,6.636,0,0,1,6.636,0Z" fill="#f0eaf9"/>
    <path id="Path_137059" data-name="Path 137059" d="M6.636,0H66.363A6.636,6.636,0,0,1,73,6.639h0v9.954H0V6.639A6.636,6.636,0,0,1,6.636,0Z" fill="#2375d6"/>
    <path id="Path_137062" data-name="Path 137062" d="M323.553,149.337A1.659,1.659,0,0,0,321.894,151h0v34.84a3.318,3.318,0,0,1-3.318,3.318h-18.25a1.659,1.659,0,0,0,0,3.318h18.25a6.636,6.636,0,0,0,6.636-6.636V151a1.659,1.659,0,0,0-1.659-1.659Z" transform="translate(-252.213 -126.107)" fill="#1c1852" opacity="0.2"/>
    <circle id="Ellipse_58" data-name="Ellipse 58" cx="1.659" cy="1.659" r="1.659" transform="translate(6.637 6.64)" fill="#f7b236"/>
    <circle id="Ellipse_59" data-name="Ellipse 59" cx="1.659" cy="1.659" r="1.659" transform="translate(13.272 6.64)" fill="#b39ddd"/>
    <circle id="Ellipse_60" data-name="Ellipse 60" cx="1.659" cy="1.659" r="1.659" transform="translate(19.909 6.64)" fill="#d80e70"/>
    <g id="Group_23989" data-name="Group 23989" transform="translate(6.636 23.231)" opacity="0.2">
      <path id="Path_137064" data-name="Path 137064" d="M207.167,172.566H173.985a3.318,3.318,0,0,1-3.318-3.318v-16.59a3.318,3.318,0,0,1,3.318-3.318h33.181a3.318,3.318,0,0,1,3.318,3.318v16.59A3.318,3.318,0,0,1,207.167,172.566Z" transform="translate(-150.758 -149.34)" fill="#1c1852"/>
      <path id="Path_137065" data-name="Path 137065" d="M52.621,162.612H45.985a3.318,3.318,0,0,1-3.318-3.318v-6.636a3.318,3.318,0,0,1,3.318-3.318h6.636a3.318,3.318,0,0,1,3.318,3.318v6.636A3.318,3.318,0,0,1,52.621,162.612Z" transform="translate(-42.667 -149.34)" fill="#1c1852"/>
      <path id="Path_137066" data-name="Path 137066" d="M52.621,311.942H45.985a3.318,3.318,0,0,1-3.318-3.318v-6.636a3.318,3.318,0,0,1,3.318-3.318h6.636a3.318,3.318,0,0,1,3.318,3.318v6.636A3.318,3.318,0,0,1,52.621,311.942Z" transform="translate(-42.667 -275.444)" fill="#1c1852"/>
      <path id="Path_137067" data-name="Path 137067" d="M172.326,320h9.954a1.659,1.659,0,0,1,1.659,1.659h0a1.659,1.659,0,0,1-1.659,1.659h-9.954a1.659,1.659,0,0,1-1.659-1.659h0A1.659,1.659,0,0,1,172.326,320Z" transform="translate(-150.758 -293.456)" fill="#1c1852"/>
      <path id="Path_137068" data-name="Path 137068" d="M385.656,320h3.318a1.659,1.659,0,0,1,1.659,1.659h0a1.659,1.659,0,0,1-1.659,1.659h-3.318A1.659,1.659,0,0,1,384,321.659h0A1.659,1.659,0,0,1,385.656,320Z" transform="translate(-330.907 -293.456)" fill="#1c1852"/>
      <path id="Path_137069" data-name="Path 137069" d="M279,320h9.954a1.659,1.659,0,0,1,1.659,1.659h0a1.659,1.659,0,0,1-1.659,1.659H279a1.659,1.659,0,0,1-1.659-1.659h0A1.659,1.659,0,0,1,279,320Z" transform="translate(-240.837 -293.456)" fill="#1c1852"/>
      <path id="Path_137070" data-name="Path 137070" d="M172.326,362.67H185.6a1.659,1.659,0,0,1,1.659,1.659h0a1.659,1.659,0,0,1-1.659,1.659H172.326a1.659,1.659,0,0,1-1.659-1.659h0A1.659,1.659,0,0,1,172.326,362.67Z" transform="translate(-150.758 -329.489)" fill="#1c1852"/>
      <path id="Path_137071" data-name="Path 137071" d="M300.326,362.67h3.318a1.659,1.659,0,0,1,1.659,1.659h0a1.659,1.659,0,0,1-1.659,1.659h-3.318a1.659,1.659,0,0,1-1.659-1.659h0A1.659,1.659,0,0,1,300.326,362.67Z" transform="translate(-258.849 -329.489)" fill="#1c1852"/>
      <path id="Path_137072" data-name="Path 137072" d="M54.28,259.324H44.326a1.659,1.659,0,0,1-1.659-1.659h0a1.659,1.659,0,0,1,1.659-1.659H54.28a1.659,1.659,0,0,1,1.659,1.659h0A1.659,1.659,0,0,1,54.28,259.324Z" transform="translate(-42.667 -239.415)" fill="#1c1852"/>
    </g>
    <path id="Path_137073" data-name="Path 137073" d="M90.545,320H87.227a16.591,16.591,0,0,0-16.591,16.591h0v.088a3.334,3.334,0,0,1-3.4,3.23H65.659a1.659,1.659,0,1,0,0,3.318H77.273a16.591,16.591,0,0,0,16.591-16.591V320Z" transform="translate(-54.046 -270.228)" fill="#f7b236"/>
    <path id="Path_137074" data-name="Path 137074" d="M93.863,326.639V320H90.545a16.591,16.591,0,0,1-16.591,16.591H70.637v.088a3.334,3.334,0,0,1-3.4,3.23H65.659a1.659,1.659,0,1,0,0,3.318H77.273a16.591,16.591,0,0,0,16.591-16.591Z" transform="translate(-54.046 -270.228)" fill="#f58b04"/>
    <path id="Path_137075" data-name="Path 137075" d="M288.069,107.783a3.8,3.8,0,0,0-3.885-.917h0A47.885,47.885,0,0,0,257.308,130.6L256,133.216v6.636h6.636l2.616-1.308a47.886,47.886,0,0,0,23.735-26.877h0a3.8,3.8,0,0,0-.917-3.885Z" transform="translate(-216.182 -90.077)" fill="#f7fafe"/>
    <ellipse id="Ellipse_61" data-name="Ellipse 61" cx="3.318" cy="8.828" rx="3.318" ry="8.828" transform="translate(49.194 41.775) rotate(-135)" fill="#2375d6"/>
    <path id="Path_137076" data-name="Path 137076" d="M284.184,106.865c-.574.2-1.12.464-1.684.688a29.971,29.971,0,0,1-26.5,28.9v3.4h6.636l2.616-1.308a47.886,47.886,0,0,0,23.735-26.877,3.8,3.8,0,0,0-4.8-4.8Z" transform="translate(-216.182 -90.077)" fill="#f7fafe"/>
    <path id="Path_137077" data-name="Path 137077" d="M234.667,283.973l3.318,3.318,6.636-3.318-6.636-6.636Z" transform="translate(-198.167 -234.198)" fill="#1c1852"/>
    <path id="Path_137078" data-name="Path 137078" d="M240.6,298.915l1.524,1.524,6.636-3.318-3.184-3.184a3.519,3.519,0,0,0-5.637.915h0a3.519,3.519,0,0,0,.659,4.062Z" transform="translate(-202.309 -247.347)" fill="#0a072e"/>
    <ellipse id="Ellipse_62" data-name="Ellipse 62" cx="2.585" cy="6.601" rx="2.585" ry="6.601" transform="translate(22.147 64.617) rotate(-135)" fill="#fbda9e"/>
  </g>
</svg>
